<svg width="3230" height="3229" xmlns="http://www.w3.org/2000/svg" xmlns:xlink="http://www.w3.org/1999/xlink" overflow="hidden"><defs><clipPath id="clip0"><rect x="1073" y="1069" width="3230" height="3229"/></clipPath></defs><g clip-path="url(#clip0)" transform="translate(-1073 -1069)"><path d="M1614.5 470.896C908.156 470.896 336.354 1042.7 336.354 1749.04L336.354 2354.48C336.354 2411.66 380.08 2455.39 437.26 2455.39 494.441 2455.39 538.167 2411.66 538.167 2354.48L538.167 2320.84 672.708 2320.84 672.708 2623.56C672.708 2697.56 733.252 2758.1 807.25 2758.1L1009.06 2758.1C1083.06 2758.1 1143.6 2697.56 1143.6 2623.56L1143.6 1883.58C1143.6 1809.59 1083.06 1749.04 1009.06 1749.04L807.25 1749.04C733.252 1749.04 672.708 1809.59 672.708 1883.58L672.708 2186.3 538.167 2186.3 538.167 1749.04C538.167 1157.06 1022.52 672.708 1614.5 672.708 2206.48 672.708 2690.83 1157.06 2690.83 1749.04L2690.83 2186.3 2556.29 2186.3 2556.29 1883.58C2556.29 1809.59 2495.75 1749.04 2421.75 1749.04L2219.94 1749.04C2145.94 1749.04 2085.4 1809.59 2085.4 1883.58L2085.4 2623.56C2085.4 2697.56 2145.94 2758.1 2219.94 2758.1L2421.75 2758.1C2495.75 2758.1 2556.29 2697.56 2556.29 2623.56L2556.29 2320.84 2690.83 2320.84 2690.83 2354.48C2690.83 2411.66 2734.56 2455.39 2791.74 2455.39 2848.92 2455.39 2892.65 2411.66 2892.65 2354.48L2892.65 1749.04C2892.65 1042.7 2320.84 470.896 1614.5 470.896Z" fill="#FFFFFF" transform="matrix(1.00031 0 0 1 1073 1069)"/></g></svg>